 Full Credits to (Pitic):
 ######## ######## ######## ##          ######## ########  ######## ######
 ##       ##       ##       ##          ##       ##     ## ##       ##       
 ##       ##       ##       ##          ##       ##     ## ##       ##       
 ######   ######   ######   ##          ######   ########  ######   ######   
 ##       ##       ##       ##          ##       ##   ##   ##       ##       
 ##       ##       ##       ##          ##       ##    ##  ##       ##       
 ##       ######## ######## ########    ##       ##     ## ######## ######


 Genre:Comedy
 Language:English
 IMDb:  http://www.imdb.com/title/tt0480687/
 Source:BluRay x264-Felony

 Format : MPEG-4
 Format profile : Base Media
 Codec ID : isom
 File size : 2.63 GiB
 Duration : 1h 51mn
 Overall bit rate : 3 373 Kbps

 Video
 ID : 1
 Format : AVC
 Format/Info : Advanced Video Codec
 Format profile : High@L4.1
 Format settings, CABAC : Yes
 Format settings, ReFrames : 3 frames
 Format settings, GOP : N=1
 Codec ID : avc1
 Codec ID/Info : Advanced Video Coding
 Duration : 1h 51mn
 Bit rate mode : Variable
 Bit rate : 3 000 Kbps
 Maximum bit rate : 24.1 Mbps
 Width : 1 280 pixels
 Height : 536 pixels
 Display aspect ratio : 2.35:1
 Frame rate mode : Constant
 Frame rate : 23.976 fps
 Color space : YUV
 Chroma subsampling : 4:2:0
 Bit depth : 8 bits
 Scan type : Progressive
 Bits/(Pixel*Frame) : 0.182
 Stream size : 2.32 GiB (88%)
 Writing library : x264

 Audio
 ID : 2
 Format : AAC
 Format/Info : Advanced Audio Codec
 Format version : Version 4
 Format profile : LC
 Format settings, SBR : No
 Codec ID : 40
 Duration : 1h 51mn
 Bit rate mode : Variable
 Bit rate : 398 Kbps
 Maximum bit rate : 537 Kbps
 Channel(s) : 6 channels
 Channel positions : Front: L C R, Side: L R, LFE
 Sampling rate : 48.0 KHz
 Stream size : 317 MiB (12%)


 Plot:
 A married man is granted the opportunity to have an affair by his wife. 
 Joined in the fun by his best pal, things get a little out of control when 
 both wives start engaging in extramarital activities as well.


 Full Credits to (Pitic):
 ######## ######## ######## ##          ######## ########  ######## ######
 ##       ##       ##       ##          ##       ##     ## ##       ##       
 ##       ##       ##       ##          ##       ##     ## ##       ##       
 ######   ######   ######   ##          ######   ########  ######   ######   
 ##       ##       ##       ##          ##       ##   ##   ##       ##       
 ##       ##       ##       ##          ##       ##    ##  ##       ##       
 ##       ######## ######## ########    ##       ##     ## ######## ######